<svg width="118" height="118" viewBox="0 0 118 118" fill="none" xmlns="http://www.w3.org/2000/svg">
<path d="M71.8004 45.9564C70.8547 44.8987 69.5138 44.2102 67.9837 44.2471L4.97919 45.6727C2.19827 45.7369 -0.00723475 48.0406 0.0497626 50.8217C0.106766 53.603 2.40698 55.8052 5.19169 55.7444L63.6975 54.4201L64.9227 112.928C64.9796 115.709 67.2798 117.912 70.061 117.847C72.842 117.783 75.0476 115.479 74.9904 112.698L73.6708 49.6914C73.6409 48.1613 72.8951 46.8589 71.8004 45.9564ZM109.809 0.559041L32.5631 2.30898C29.7821 2.37329 27.5765 4.67704 27.6335 7.45811C27.6906 10.2394 29.9943 12.445 32.7718 12.3773L105.522 10.7322L107.044 83.4822C107.101 86.2636 109.401 88.4656 112.186 88.4049C114.967 88.3407 117.172 86.037 117.115 83.2558L115.496 6.01094C115.466 4.4807 114.716 3.17471 113.618 2.27589C112.676 1.21433 111.335 0.525786 109.809 0.559041Z" fill="black"/>
</svg>
