<svg width="160" height="160" viewBox="0 0 160 160" fill="none" xmlns="http://www.w3.org/2000/svg">
<g clip-path="url(#clip0)">
<path d="M159.479 146.947C150.901 132.739 141.787 118.8 133.209 104.593C131.6 101.912 127.043 102.984 127.311 106.201C127.311 112.367 127.579 118.264 127.579 124.43C123.29 119.873 122.217 114.511 121.413 108.078C120.877 105.397 119.805 102.448 116.856 101.644C112.299 100.304 107.206 104.861 103.721 107.273C94.8747 113.439 86.8327 120.677 77.1822 125.77C65.9234 131.4 65.6553 123.358 68.0679 114.512C70.4805 105.129 74.7696 95.7468 79.5948 87.4367C88.173 72.961 98.092 57.9492 100.504 41.0609C101.845 31.6785 97.0193 17.4709 85.2238 18.007C70.7486 18.5432 54.1279 29.2659 44.7455 39.9886C39.3841 45.35 8.82435 85.5602 5.8756 62.5064C3.73105 45.6181 17.6706 24.9768 25.9807 11.0372C27.053 9.16076 24.3723 7.28429 23.032 8.8927C12.5777 21.7595 4.26762 38.1117 0.514668 54.4639C-1.36181 63.3101 1.58694 79.6623 14.4542 76.1774C29.4661 72.1564 39.3846 55.2681 49.035 44.0092C54.9325 36.7714 64.3149 31.41 72.357 27.1209C89.5134 18.0066 97.2874 31.41 92.9983 46.958C87.6373 65.9908 73.9654 81.5383 66.1914 99.4993C63.5107 105.933 53.8603 127.378 64.3149 132.74C76.378 138.905 92.4621 123.625 101.04 116.924C100.504 117.192 114.712 105.665 115.516 108.078C116.32 110.491 116.32 113.439 116.857 116.12C117.929 121.213 120.074 125.234 123.559 128.451C118.465 128.183 113.372 128.451 108.279 129.255C105.598 129.791 105.33 133.812 107.474 135.152C122.754 143.731 139.911 145.875 156.263 151.505C158.675 152.577 161.088 149.36 159.479 146.947ZM130.528 133.276C132.136 133.276 132.672 131.936 132.404 130.863C133.209 130.327 133.745 129.523 133.745 128.451C133.745 124.966 133.745 121.213 133.745 117.728C139.106 126.306 144.467 134.617 149.829 143.195C139.642 140.246 129.188 138.102 119.537 134.08C123.022 133.812 126.775 133.544 130.528 133.276Z" fill="black"/>
</g>
<defs>
<clipPath id="clip0">
<rect width="160" height="160" fill="white"/>
</clipPath>
</defs>
</svg>
