<svg width="121" height="121" viewBox="0 0 121 121" fill="none" xmlns="http://www.w3.org/2000/svg">
<path d="M49.1681 72.0362C50.2041 73.0056 51.6009 73.5722 53.1216 73.3994L115.75 66.3774C118.514 66.0662 120.506 63.5755 120.202 60.8105C119.898 58.0452 117.411 56.0563 114.643 56.3645L56.4863 62.8856L50.0637 4.7181C49.7598 1.95297 47.2729 -0.0359128 44.5084 0.275304C41.7441 0.58664 39.7522 3.07737 40.0563 5.84221L46.973 68.4823C47.1388 70.0037 47.9975 71.2347 49.1681 72.0362ZM15.3468 120.633L92.1309 112.022C94.8952 111.711 96.8872 109.22 96.5831 106.455C96.279 103.69 93.7883 101.698 91.0278 102.012L18.7116 110.119L10.7278 37.7927C10.4237 35.0274 7.93691 33.0387 5.16849 33.3467C2.40404 33.658 0.412102 36.1487 0.716294 38.9138L9.19742 115.709C9.36311 117.23 10.2261 118.464 11.3996 119.262C12.4324 120.236 13.8292 120.802 15.3468 120.633Z" fill="black"/>
</svg>
