<svg width="30" height="33" viewBox="0 0 30 33" fill="none" xmlns="http://www.w3.org/2000/svg">
<g clip-path="url(#clip0)">
<path d="M17.0245 32.0923H12.2109C11.4068 32.0923 10.7528 31.3926 10.7528 30.5325V18.9179H7.94441C7.14038 18.9179 6.48633 18.218 6.48633 17.3581V12.3812C6.48633 11.5211 7.14038 10.8215 7.94441 10.8215H10.7528V8.32923C10.7528 5.85808 11.4781 3.75566 12.8502 2.24962C14.2285 0.736705 16.1546 -0.0628052 18.4204 -0.0628052L22.0915 -0.0564268C22.8942 -0.0549548 23.5471 0.644708 23.5471 1.50334V6.12426C23.5471 6.98436 22.8933 7.68403 22.0895 7.68403L19.6178 7.68501C18.8639 7.68501 18.672 7.84668 18.6309 7.89623C18.5633 7.97841 18.4828 8.21074 18.4828 8.85226V10.8212H21.9037C22.1612 10.8212 22.4108 10.8892 22.6252 11.0172C23.0877 11.2937 23.3753 11.8165 23.3753 12.3815L23.3735 17.3584C23.3735 18.218 22.7194 18.9176 21.9154 18.9176H18.4828V30.5325C18.4828 31.3926 17.8285 32.0923 17.0245 32.0923ZM12.5149 30.2072H16.7204V18.074C16.7204 17.4997 17.1573 17.0326 17.6939 17.0326H21.6113L21.6129 12.7065H17.6937C17.157 12.7065 16.7204 12.2394 16.7204 11.6651V8.85226C16.7204 8.1158 16.7903 7.27826 17.31 6.64876C17.9379 5.88777 18.9275 5.79994 19.6173 5.79994L21.7849 5.79896V1.82815L18.419 1.82226C14.7777 1.82226 12.5149 4.31573 12.5149 8.32923V11.6651C12.5149 12.2392 12.0783 12.7065 11.5417 12.7065H8.2485V17.0326H11.5417C12.0783 17.0326 12.5149 17.4997 12.5149 18.074V30.2072ZM22.0881 1.82864H22.0883H22.0881Z" fill="black"/>
</g>
<defs>
<clipPath id="clip0">
<rect width="30" height="32.1551" fill="white"/>
</clipPath>
</defs>
</svg>
