<svg width="51" height="51" viewBox="0 0 51 51" fill="none" xmlns="http://www.w3.org/2000/svg">
<g clip-path="url(#clip0)">
<path d="M33.6946 23.4166L22.6484 17.3726C22.0133 17.0251 21.2625 17.0381 20.64 17.407C20.0171 17.7762 19.6455 18.4285 19.6455 19.1526V31.1368C19.6455 31.8574 20.0148 32.5085 20.6335 32.8782C20.9566 33.0712 21.3148 33.1681 21.6738 33.1681C22.0026 33.1681 22.3322 33.0868 22.6355 32.9236L33.682 26.9837C34.3377 26.6309 34.7471 25.9492 34.7501 25.2042C34.7528 24.4592 34.3484 23.7744 33.6946 23.4166ZM22.5756 29.6292V20.6723L30.8313 25.1897L22.5756 29.6292Z" fill="black"/>
<path d="M50.6306 15.6564L50.6283 15.6336C50.586 15.2311 50.1644 11.6514 48.4242 9.83066C46.4127 7.6891 44.1323 7.42894 43.0356 7.3042C42.9448 7.2939 42.8616 7.28436 42.7872 7.27444L42.6999 7.26529C36.0898 6.78464 26.1072 6.71902 26.0072 6.71864L25.9984 6.71826L25.9897 6.71864C25.8897 6.71902 15.9071 6.78464 9.23749 7.26529L9.14937 7.27444C9.07841 7.28398 9.00021 7.29275 8.91514 7.30267C7.83101 7.42779 5.57501 7.68834 3.55781 9.90734C1.90033 11.7086 1.4212 15.2117 1.37199 15.6053L1.36627 15.6564C1.35139 15.8239 0.998535 19.8106 0.998535 23.813V27.5544C0.998535 31.5568 1.35139 35.5435 1.36627 35.7114L1.36894 35.7365C1.41128 36.1325 1.83242 39.6466 3.56467 41.4681C5.45599 43.538 7.84742 43.8118 9.13373 43.9591C9.33705 43.9824 9.51214 44.0022 9.63154 44.0232L9.74713 44.0392C13.5637 44.4024 25.53 44.5813 26.0373 44.5885L26.0526 44.5889L26.0679 44.5885C26.1678 44.5881 36.1501 44.5225 42.7602 44.0419L42.8475 44.0327C42.931 44.0217 43.0249 44.0117 43.1279 44.0011C44.2059 43.8866 46.4497 43.649 48.4391 41.4601C50.0965 39.6584 50.576 36.1554 50.6249 35.7621L50.6306 35.711C50.6455 35.5431 50.9987 31.5568 50.9987 27.5544V23.813C50.9983 19.8106 50.6455 15.8243 50.6306 15.6564ZM48.0683 27.5544C48.0683 31.2589 47.7448 35.0739 47.7143 35.4241C47.5899 36.3889 47.0845 38.6052 46.2769 39.4829C45.0318 40.8528 43.7527 40.9886 42.8189 41.0874C42.706 41.0992 42.6015 41.1107 42.5069 41.1225C36.1134 41.5848 26.5077 41.6558 26.0652 41.6585C25.5689 41.6512 13.7777 41.4708 10.0775 41.1271C9.88789 41.0962 9.68304 41.0725 9.46713 41.0481C8.37193 40.9226 6.87276 40.7509 5.71997 39.4829L5.69288 39.454C4.89943 38.6273 4.40848 36.5548 4.28374 35.4356C4.26047 35.1708 3.92859 31.3108 3.92859 27.5544V23.813C3.92859 20.1128 4.25131 16.3019 4.28259 15.9445C4.43099 14.8081 4.94597 12.726 5.71997 11.8845C7.00323 10.4731 8.35629 10.3167 9.25122 10.2133C9.33667 10.2034 9.41639 10.1942 9.49002 10.1847C15.9765 9.72003 25.6513 9.65099 25.9984 9.64832C26.3456 9.65061 36.0169 9.72003 42.4458 10.1847C42.5248 10.1946 42.611 10.2045 42.7037 10.2152C43.6242 10.3201 45.0154 10.4788 46.2922 11.8406L46.304 11.8532C47.0974 12.6798 47.5884 14.7886 47.7131 15.9303C47.7353 16.1802 48.0683 20.0487 48.0683 23.813V27.5544Z" fill="black"/>
</g>
<defs>
<clipPath id="clip0">
<rect width="50" height="49.9998" fill="white" transform="translate(0.998535 0.663574)"/>
</clipPath>
</defs>
</svg>
