<svg width="51" height="51" viewBox="0 0 51 51" fill="none" xmlns="http://www.w3.org/2000/svg">
<g clip-path="url(#clip0)">
<path d="M29.3181 50.5659H21.3111C19.9736 50.5659 18.8857 49.478 18.8857 48.1405V30.0802H14.2142C12.8768 30.0802 11.7888 28.9919 11.7888 27.6548V19.916C11.7888 18.5785 12.8768 17.4906 14.2142 17.4906H18.8857V13.6152C18.8857 9.77269 20.0923 6.50349 22.3746 4.16165C24.6672 1.80913 27.8712 0.565918 31.6401 0.565918L37.7467 0.575836C39.0818 0.578125 40.1679 1.66608 40.1679 3.00122V10.1866C40.1679 11.524 39.0803 12.612 37.7433 12.612L33.6318 12.6135C32.3779 12.6135 32.0586 12.8649 31.9903 12.9419C31.8778 13.0697 31.7439 13.431 31.7439 14.4285V17.4902H37.4343C37.8627 17.4902 38.2777 17.5959 38.6344 17.795C39.4038 18.2249 39.8822 19.0378 39.8822 19.9164L39.8791 27.6552C39.8791 28.9919 38.7912 30.0799 37.4537 30.0799H31.7439V48.1405C31.7439 49.478 30.6556 50.5659 29.3181 50.5659ZM21.8169 47.6347H28.8123V28.768C28.8123 27.875 29.539 27.1486 30.4316 27.1486H36.9479L36.9506 20.4218H30.4312C29.5386 20.4218 28.8123 19.6955 28.8123 18.8025V14.4285C28.8123 13.2834 28.9286 11.981 29.7931 11.0022C30.8375 9.81885 32.4836 9.68228 33.631 9.68228L37.2367 9.68076V3.50629L31.6378 3.49713C25.5809 3.49713 21.8169 7.37439 21.8169 13.6152V18.8025C21.8169 19.6951 21.0906 20.4218 20.1979 20.4218H14.72V27.1486H20.1979C21.0906 27.1486 21.8169 27.875 21.8169 28.768V47.6347ZM37.741 3.50705H37.7414H37.741Z" fill="black"/>
</g>
<defs>
<clipPath id="clip0">
<rect width="49.9023" height="50" fill="white" transform="translate(0.997803 0.663574)"/>
</clipPath>
</defs>
</svg>
