<svg width="50" height="51" viewBox="0 0 50 51" fill="none" xmlns="http://www.w3.org/2000/svg">
<g clip-path="url(#clip0)">
<path d="M36.4654 0.663574H13.5345C6.07146 0.663574 0 6.73503 0 14.1981V37.1293C0 44.592 6.07146 50.6635 13.5345 50.6635H36.4658C43.9284 50.6635 49.9999 44.592 49.9999 37.1293V14.1981C49.9999 6.73503 43.9284 0.663574 36.4654 0.663574V0.663574ZM47.0687 37.1293C47.0687 42.9757 42.3122 47.7323 36.4654 47.7323H13.5345C7.68774 47.7323 2.93121 42.9757 2.93121 37.1293V14.1981C2.93121 8.35132 7.68774 3.59478 13.5345 3.59478H36.4658C42.3122 3.59478 47.0687 8.35132 47.0687 14.1981V37.1293Z" fill="black"/>
<path d="M25 11.9921C17.4614 11.9921 11.3285 18.1249 11.3285 25.6635C11.3285 33.2021 17.4614 39.335 25 39.335C32.5385 39.335 38.6714 33.2021 38.6714 25.6635C38.6714 18.1249 32.5385 11.9921 25 11.9921ZM25 36.4038C19.078 36.4038 14.2597 31.5858 14.2597 25.6635C14.2597 19.7416 19.078 14.9233 25 14.9233C30.9223 14.9233 35.7402 19.7416 35.7402 25.6635C35.7402 31.5858 30.9223 36.4038 25 36.4038Z" fill="black"/>
<path d="M38.9983 7.13672C36.7705 7.13672 34.9585 8.94908 34.9585 11.1765C34.9585 13.4043 36.7705 15.2166 38.9983 15.2166C41.226 15.2166 43.0384 13.4043 43.0384 11.1765C43.0384 8.9487 41.226 7.13672 38.9983 7.13672ZM38.9983 12.285C38.3871 12.285 37.8897 11.7876 37.8897 11.1765C37.8897 10.565 38.3871 10.0679 38.9983 10.0679C39.6097 10.0679 40.1072 10.565 40.1072 11.1765C40.1072 11.7876 39.6097 12.285 38.9983 12.285Z" fill="black"/>
</g>
<defs>
<clipPath id="clip0">
<rect width="50" height="50" fill="white" transform="translate(0 0.663574)"/>
</clipPath>
</defs>
</svg>
