<svg width="50" height="51" viewBox="0 0 50 51" fill="none" xmlns="http://www.w3.org/2000/svg">
<g clip-path="url(#clip0)">
<path d="M45.8326 6.91357H4.16597C1.86792 6.91357 -0.000732422 8.78223 -0.000732422 11.0803V40.247C-0.000732422 42.5449 1.86792 44.4136 4.16597 44.4136H45.8327C48.1306 44.4136 49.9993 42.5449 49.9993 40.2469V11.0803C49.9993 8.78223 48.1306 6.91357 45.8326 6.91357ZM4.16597 8.99688H45.8327C45.9862 8.99688 46.1214 9.05283 46.2655 9.08447C42.6582 12.3859 30.6968 23.3285 26.511 27.0999C26.1834 27.3949 25.6555 27.7469 24.9994 27.7469C24.3432 27.7469 23.8153 27.3949 23.4867 27.0989C19.3012 23.3281 7.33921 12.385 3.73247 9.08467C3.87681 9.05303 4.01235 8.99688 4.16597 8.99688ZM2.08257 40.2469V11.0803C2.08257 10.8762 2.14409 10.691 2.19917 10.5045C4.96011 13.0314 13.3062 20.6666 18.7179 25.5878C13.3238 30.2213 4.97554 38.1361 2.19263 40.7898C2.14351 40.6127 2.08257 40.4395 2.08257 40.2469ZM45.8326 42.3303H4.16597C3.99956 42.3303 3.85161 42.2723 3.69624 42.2352C6.57192 39.4937 14.9733 31.5334 20.2726 26.9999C20.9634 27.6266 21.5945 28.1979 22.0919 28.6462C22.9505 29.4214 23.9555 29.8303 24.9993 29.8303C26.043 29.8303 27.048 29.4213 27.9055 28.6472C28.4032 28.1987 29.0347 27.6269 29.7259 26.9999C35.0255 31.5329 43.4257 39.4927 46.3023 42.2352C46.1469 42.2723 45.9992 42.3303 45.8326 42.3303ZM47.916 40.2469C47.916 40.4394 47.855 40.6127 47.806 40.7898C45.022 38.1348 36.6748 30.2208 31.2807 25.5879C36.6926 20.6667 45.0374 13.0322 47.7994 10.5043C47.8544 10.6908 47.916 10.8761 47.916 11.0802V40.2469Z" fill="black"/>
</g>
<defs>
<clipPath id="clip0">
<rect width="50" height="50" fill="white" transform="translate(-0.000732422 0.663574)"/>
</clipPath>
</defs>
</svg>
