<svg width="30" height="33" viewBox="0 0 30 33" fill="none" xmlns="http://www.w3.org/2000/svg">
<g clip-path="url(#clip0)">
<path d="M27.5 4.01154H2.50002C1.12119 4.01154 0 5.21092 0 6.68591V25.4064C0 26.8813 1.12119 28.0807 2.50002 28.0807H27.5C28.8788 28.0807 30 26.8813 30 25.4064V6.68591C30 5.21092 28.8788 4.01154 27.5 4.01154ZM2.50002 5.34869H27.5C27.5921 5.34869 27.6733 5.38461 27.7597 5.40492C25.5953 7.52395 18.4185 14.5474 15.907 16.968C15.7105 17.1574 15.3938 17.3833 15.0001 17.3833C14.6064 17.3833 14.2896 17.1574 14.0924 16.9674C11.5812 14.5471 4.40396 7.52332 2.23992 5.40504C2.32652 5.38473 2.40785 5.34869 2.50002 5.34869ZM1.24998 25.4064V6.68591C1.24998 6.55491 1.28689 6.43607 1.31994 6.31635C2.9765 7.93826 7.98416 12.8389 11.2312 15.9975C7.99471 18.9715 2.98576 24.0516 1.31602 25.7549C1.28654 25.6412 1.24998 25.53 1.24998 25.4064ZM27.5 26.7436H2.50002C2.40018 26.7436 2.31141 26.7063 2.21818 26.6825C3.94359 24.923 8.98441 19.8137 12.164 16.9039C12.5785 17.3061 12.9571 17.6728 13.2556 17.9605C13.7708 18.4581 14.3737 18.7205 15 18.7205C15.6263 18.7205 16.2292 18.458 16.7438 17.9611C17.0423 17.6733 17.4213 17.3063 17.836 16.9039C21.0158 19.8133 26.0559 24.9223 27.7818 26.6825C27.6886 26.7063 27.5999 26.7436 27.5 26.7436ZM28.75 25.4064C28.75 25.5299 28.7135 25.6412 28.684 25.7549C27.0137 24.0507 22.0053 18.9712 18.7689 15.9976C22.016 12.8389 27.0229 7.93876 28.6801 6.31622C28.7131 6.43594 28.75 6.55485 28.75 6.68585V25.4064Z" fill="black"/>
</g>
<defs>
<clipPath id="clip0">
<rect width="30" height="32.0923" fill="white"/>
</clipPath>
</defs>
</svg>
