<svg width="30" height="33" viewBox="0 0 30 33" fill="none" xmlns="http://www.w3.org/2000/svg">
<g clip-path="url(#clip0)">
<path d="M21.8792 0H8.12071C3.64288 0 0 3.89694 0 8.68707V23.4054C0 28.1953 3.64288 32.0922 8.12071 32.0922H21.8795C26.3571 32.0922 29.9999 28.1953 29.9999 23.4054V8.68707C29.9999 3.89694 26.3571 0 21.8792 0V0ZM28.2412 23.4054C28.2412 27.1579 25.3873 30.2108 21.8792 30.2108H8.12071C4.61265 30.2108 1.75872 27.1579 1.75872 23.4054V8.68707C1.75872 4.93434 4.61265 1.88138 8.12071 1.88138H21.8795C25.3873 1.88138 28.2412 4.93434 28.2412 8.68707V23.4054Z" fill="black"/>
<path d="M14.9998 7.27112C10.4766 7.27112 6.79688 11.2075 6.79688 16.0461C6.79688 20.8847 10.4766 24.8211 14.9998 24.8211C19.5229 24.8211 23.2026 20.8847 23.2026 16.0461C23.2026 11.2075 19.5229 7.27112 14.9998 7.27112ZM14.9998 22.9397C11.4466 22.9397 8.5556 19.8473 8.5556 16.0461C8.5556 12.2451 11.4466 9.1525 14.9998 9.1525C18.5531 9.1525 21.4439 12.2451 21.4439 16.0461C21.4439 19.8473 18.5531 22.9397 14.9998 22.9397Z" fill="black"/>
<path d="M23.3985 4.15475C22.0618 4.15475 20.9746 5.31801 20.9746 6.74765C20.9746 8.17754 22.0618 9.3408 23.3985 9.3408C24.7351 9.3408 25.8225 8.17754 25.8225 6.74765C25.8225 5.31776 24.7351 4.15475 23.3985 4.15475ZM23.3985 7.45917C23.0318 7.45917 22.7333 7.13989 22.7333 6.74765C22.7333 6.35517 23.0318 6.03614 23.3985 6.03614C23.7654 6.03614 24.0638 6.35517 24.0638 6.74765C24.0638 7.13989 23.7654 7.45917 23.3985 7.45917Z" fill="black"/>
</g>
<defs>
<clipPath id="clip0">
<rect width="30" height="32.0923" fill="white"/>
</clipPath>
</defs>
</svg>
