<svg width="177" height="177" viewBox="0 0 177 177" fill="none" xmlns="http://www.w3.org/2000/svg">
<g clip-path="url(#clip0)">
<path d="M144.733 2.64922C135.656 6.64574 127.214 12.2373 118.701 17.1253C117.575 17.7129 117.764 19.5898 118.539 20.2226C123.165 23.7847 127.837 27.8164 133.259 29.8769L133.283 30.1115C138.281 58.5212 116.674 88.6667 100.831 110.173C82.7153 134.989 59.9288 158.143 30.9612 169.36C27.2548 170.208 23.3137 171.079 19.3252 171.482C17.4483 171.671 17.7086 174.252 19.6092 174.297C20.3131 174.226 21.0169 174.155 21.7207 174.084C21.8154 175.023 22.5902 175.655 23.7633 175.537C26.3204 175.042 28.8301 174.078 31.3635 173.349C94.7544 165.058 149.599 95.5366 147.34 33.1966C151.307 34.9295 155.484 36.4037 159.475 38.3712C161.235 39.379 162.688 37.3361 162.288 35.7174C159.463 24.1524 152.767 14.1628 147.455 3.79659C147.126 2.88217 146.093 2.03839 144.733 2.64922ZM157.288 33.1411C154.096 32.0407 150.952 31.4103 147.736 30.0756C146.515 29.7244 145.648 30.5232 145.485 31.2507C144.781 31.3217 144.358 31.8383 144.195 32.5658C140.467 89.5848 106.816 138.957 56.6696 161.079C75.9687 147.993 92.0954 129.303 105.43 111.131C115.227 97.8186 123.779 83.921 130.57 69.016C135.793 57.3503 140.262 42.9165 134.996 30.6497C136.944 31.1642 137.598 28.2542 136.096 27.4577C131.8 24.8101 127.738 22.1387 123.888 19.2091C130.83 15.1913 137.747 10.9382 144.995 7.60055C149.155 15.9495 154.254 24.2042 157.288 33.1411Z" fill="black"/>
</g>
<defs>
<clipPath id="clip0">
<rect width="160" height="160" fill="white" transform="translate(17.0254 176.217) rotate(-95.7598)"/>
</clipPath>
</defs>
</svg>
