<svg width="160" height="160" viewBox="0 0 160 160" fill="none" xmlns="http://www.w3.org/2000/svg">
<g clip-path="url(#clip0)">
<path d="M139.389 126.943C116.05 156.344 70.2808 149.07 59.6721 112.394C59.0659 110.576 58.7628 108.454 58.4597 106.635C83.0112 101.179 106.956 83.2962 109.078 61.7758C110.897 42.3771 91.195 36.6182 78.1615 47.5299C62.7032 60.5634 51.7914 79.659 50.8821 99.9665C35.1207 102.088 19.6624 97.8447 11.1754 82.3864C-3.07047 56.3199 16.0251 21.1593 41.4859 10.8538C44.2138 9.94447 43.0014 5.70101 40.2735 6.61033C5.11335 16.6133 -13.0729 65.7162 10.8723 94.8137C20.2686 106.029 35.4238 109.666 51.1852 107.847C53.3069 128.458 69.3715 144.826 88.4666 151.191C110.593 158.466 130.901 147.857 143.935 130.58C146.057 127.852 141.51 124.518 139.389 126.943ZM71.4932 65.7162C76.3429 59.0479 82.7081 51.4703 90.8919 48.7423C98.7721 46.0144 101.501 56.9261 101.803 61.7758C102.106 67.8379 97.8628 73.2938 93.9224 77.5372C85.7391 86.933 72.0994 95.1173 58.1566 98.7541C59.0659 86.933 64.8249 75.4155 71.4932 65.7162Z" fill="black"/>
<path d="M156.363 115.728C147.876 115.728 139.086 116.335 130.902 118.456C127.568 119.366 129.083 123.912 132.418 123.306C139.086 122.094 146.058 122.397 152.726 122.7C152.423 126.64 152.12 130.883 151.513 134.823C150.907 137.855 148.785 142.401 150.604 145.432C151.513 146.948 153.029 146.948 154.544 146.341C158.182 144.826 158.182 138.461 158.788 135.127C159.697 129.67 160 124.518 160 119.062C160 117.244 158.181 115.728 156.363 115.728Z" fill="black"/>
</g>
<defs>
<clipPath id="clip0">
<rect width="160" height="160" fill="white"/>
</clipPath>
</defs>
</svg>
