<svg width="171" height="171" viewBox="0 0 171 171" fill="none" xmlns="http://www.w3.org/2000/svg">
<g clip-path="url(#clip0)">
<path d="M29.3572 35.0629C54.5063 7.19437 99.7243 17.3447 107.996 54.6171C108.486 56.4704 108.654 58.607 108.842 60.4411C83.995 64.3357 58.9682 80.671 55.4917 102.014C52.4516 121.26 71.7504 128.251 85.447 118.184C101.698 106.153 113.793 87.7847 115.983 67.5752C131.847 66.453 147.007 71.6642 154.501 87.6276C167.072 114.542 145.794 148.426 119.733 157.103C116.953 157.839 117.895 162.15 120.675 161.415C156.397 153.652 177.648 105.796 155.588 75.2443C146.919 63.458 132.023 58.8714 116.179 59.691C115.363 38.9871 100.364 21.6376 81.7088 14.0793C60.0858 5.42197 39.1484 14.7265 25.0498 31.1463C22.7596 33.7348 27.087 37.349 29.3572 35.0629ZM93.2505 100.455C87.9894 106.804 81.1583 113.965 72.8186 116.17C64.7818 118.395 62.7479 107.333 62.7522 102.474C62.8325 96.4047 67.412 91.2277 71.6125 87.2416C80.3728 78.3814 94.5022 71.0747 108.647 68.3258C106.993 80.0658 100.518 91.1966 93.2505 100.455Z" fill="black"/>
<path d="M11.7085 45.1834C20.1785 45.7193 28.9893 45.6694 37.2908 44.0687C40.6752 43.3718 39.4503 38.7386 36.0841 39.133C29.3525 39.9219 22.4142 39.1791 15.7783 38.4555C16.3296 34.5427 16.9001 30.3268 17.7539 26.4326C18.5503 23.4459 20.955 19.0424 19.3314 15.9026C18.5196 14.3322 17.0071 14.2364 15.4563 14.7462C11.7306 16.029 11.3286 22.3815 10.5131 25.6707C9.261 31.0588 8.63362 36.1817 8.28904 41.6272C8.17425 43.4412 9.89354 45.0685 11.7085 45.1834Z" fill="black"/>
</g>
<defs>
<clipPath id="clip0">
<rect width="160" height="160" fill="white" transform="translate(160.451 170.555) rotate(-176.379)"/>
</clipPath>
</defs>
</svg>
