<svg width="50" height="48" viewBox="0 0 50 48" fill="none" xmlns="http://www.w3.org/2000/svg">
<g clip-path="url(#clip0)">
<path d="M25 0C11.2144 0 0 10.7658 0 24C0 28.5148 1.30673 32.8975 3.78558 36.7034C2.79808 40.0246 1.01442 46.3071 0.995192 46.3726C0.902885 46.6975 1.00192 47.0446 1.25481 47.2782C1.50769 47.5117 1.87308 47.5948 2.20577 47.4969L12.1154 44.5708C15.9971 46.8157 20.4423 48 25 48C38.7856 48 50 37.2342 50 24C50 10.7658 38.7856 0 25 0ZM25 46.1538C20.6548 46.1538 16.4221 44.988 12.7587 42.7837C12.6038 42.6905 12.426 42.6434 12.2481 42.6434C12.1529 42.6434 12.0577 42.6572 11.9654 42.684L3.3125 45.2409C3.94808 43.0135 5.09038 39.0295 5.75288 36.8132C5.82981 36.5566 5.78654 36.2797 5.63558 36.0554C3.20673 32.4674 1.92308 28.2988 1.92308 24C1.92308 11.7849 12.276 1.84615 25 1.84615C37.724 1.84615 48.0769 11.7849 48.0769 24C48.0769 36.2151 37.724 46.1538 25 46.1538Z" fill="black"/>
<path d="M41.3317 29.6548C39.5567 28.7087 38.0452 27.7597 36.9423 27.0674C36.1 26.5394 35.4913 26.1582 35.0452 25.9431C33.7981 25.3459 32.8529 25.7677 32.4932 26.1167C32.4481 26.16 32.4077 26.2071 32.3731 26.257C31.0779 28.1225 29.3865 29.9068 28.8913 30.0028C28.3192 29.917 25.6413 28.4557 22.9798 26.3281C20.2625 24.1542 18.5529 22.0727 18.3019 20.6548C20.0452 18.9324 20.6731 17.8487 20.6731 16.6154C20.6731 15.3444 17.5846 10.0376 17.0259 9.50128C16.4654 8.96405 15.2029 8.88005 13.2731 9.24928C13.0875 9.28528 12.9163 9.37297 12.7817 9.50128C12.5481 9.72559 7.08075 15.0767 9.67883 21.5622C12.5308 28.68 19.8509 36.9536 29.1836 38.2976C30.2442 38.4499 31.2384 38.5256 32.1692 38.5256C37.6596 38.5256 40.9 35.8736 41.8125 30.613C41.8807 30.2281 41.6875 29.844 41.3317 29.6548ZM29.4692 36.4717C19.6 35.0511 13.3836 25.6644 11.474 20.8994C9.57979 16.1733 13.0731 11.9594 13.95 11.0068C14.6634 10.8905 15.4144 10.8416 15.7279 10.8887C16.3827 11.7628 18.65 15.8751 18.75 16.6154C18.75 17.1 18.5856 17.7748 16.6279 19.6551C16.4471 19.8277 16.3461 20.0622 16.3461 20.3077C16.3461 25.141 26.9654 31.8462 28.8461 31.8462C30.4817 31.8462 32.6144 29.2071 33.8288 27.4874C33.899 27.4902 34.0173 27.5133 34.1856 27.5945C34.5317 27.7616 35.1317 28.1373 35.8904 28.6136C36.8923 29.2422 38.2231 30.0767 39.7942 30.9416C39.0807 34.237 37.0865 37.5702 29.4692 36.4717Z" fill="black"/>
</g>
<defs>
<clipPath id="clip0">
<rect width="50" height="48" fill="white"/>
</clipPath>
</defs>
</svg>
