<svg width="30" height="33" viewBox="0 0 30 33" fill="none" xmlns="http://www.w3.org/2000/svg">
<g clip-path="url(#clip0)">
<path d="M19.6169 14.604L12.9892 10.7247C12.6082 10.5016 12.1577 10.5099 11.7842 10.7467C11.4104 10.9837 11.1875 11.4024 11.1875 11.8671V19.5591C11.1875 20.0216 11.4091 20.4396 11.7803 20.6768C11.9742 20.8007 12.1891 20.8629 12.4045 20.8629C12.6018 20.8629 12.7995 20.8107 12.9815 20.7059L19.6094 16.8935C20.0028 16.667 20.2484 16.2295 20.2503 15.7513C20.2519 15.2731 20.0092 14.8336 19.6169 14.604ZM12.9455 18.5915V12.8425L17.899 15.742L12.9455 18.5915Z" fill="black"/>
<path d="M29.7792 9.6231L29.7779 9.60841C29.7525 9.3501 29.4995 7.05249 28.4554 5.88385C27.2485 4.5093 25.8803 4.34231 25.2222 4.26225C25.1677 4.25564 25.1179 4.24952 25.0732 4.24315L25.0208 4.23728C21.0548 3.92877 15.0652 3.88666 15.0052 3.88641L14.9999 3.88617L14.9947 3.88641C14.9347 3.88666 8.94512 3.92877 4.94337 4.23728L4.8905 4.24315C4.84793 4.24927 4.80101 4.2549 4.74997 4.26127C4.09949 4.34158 2.74588 4.50881 1.53556 5.93306C0.541075 7.08921 0.2536 9.33761 0.224074 9.59029L0.220641 9.6231C0.211715 9.73059 0 12.2894 0 14.8583V17.2598C0 19.8287 0.211715 22.3875 0.220641 22.4953L0.222243 22.5114C0.247649 22.7656 0.500334 25.0211 1.53968 26.1902C2.67447 27.5187 4.10933 27.6945 4.88111 27.789C5.00311 27.804 5.10816 27.8167 5.1798 27.8302L5.24916 27.8404C7.53911 28.0735 14.7189 28.1884 15.0233 28.193L15.0324 28.1933L15.0416 28.193C15.1016 28.1928 21.0909 28.1507 25.057 27.8422L25.1094 27.8363C25.1595 27.8292 25.2158 27.8228 25.2776 27.816C25.9244 27.7425 27.2707 27.59 28.4643 26.1851C29.4588 25.0287 29.7465 22.7803 29.7758 22.5278L29.7792 22.495C29.7882 22.3873 30.0001 19.8287 30.0001 17.2598V14.8583C29.9999 12.2894 29.7882 9.73083 29.7792 9.6231ZM28.2418 17.2598C28.2418 19.6374 28.0478 22.0861 28.0294 22.3109C27.9548 22.9301 27.6516 24.3526 27.167 24.916C26.42 25.7953 25.6525 25.8824 25.0922 25.9458C25.0245 25.9534 24.9618 25.9608 24.905 25.9684C21.0689 26.2651 15.3055 26.3107 15.04 26.3124C14.7422 26.3077 7.66751 26.1919 5.44737 25.9713C5.33361 25.9515 5.2107 25.9363 5.08116 25.9206C4.42404 25.8401 3.52454 25.7299 2.83286 24.916L2.81661 24.8974C2.34054 24.3668 2.04597 23.0366 1.97112 22.3182C1.95716 22.1483 1.75803 19.6707 1.75803 17.2598V14.8583C1.75803 12.4834 1.95167 10.0374 1.97044 9.80796C2.05947 9.07857 2.36846 7.74221 2.83286 7.20209C3.60281 6.29616 4.41466 6.19578 4.95161 6.12943C5.00288 6.12306 5.05072 6.11718 5.09489 6.11106C8.98678 5.81284 14.7917 5.76853 14.9999 5.76681C15.2082 5.76828 21.011 5.81284 24.8684 6.11106C24.9158 6.11743 24.9675 6.1238 25.0231 6.13065C25.5754 6.19798 26.4101 6.29984 27.1762 7.17393L27.1833 7.18201C27.6593 7.71259 27.9539 9.06608 28.0288 9.7989C28.042 9.95927 28.2418 12.4422 28.2418 14.8583V17.2598Z" fill="black"/>
</g>
<defs>
<clipPath id="clip0">
<rect width="30" height="32.0921" fill="white"/>
</clipPath>
</defs>
</svg>
